:SAMPLES-PER-SECOND 30
:FRAME-RANGE 1-1086
:FULLY-SPECIFIED
:DEGREES
408
root  -97.3661 38.9134 38.6529 6.53783 40.9673 3.73999
RightUpLeg  -10.1522 -9.49778 -2.91353
RightLeg  7.67072 -24.5377 2.47396
RightFoot  -2.65313 -0.13114 1.48794
RightToes  -5.8209e-011 0 -3.6325e-017
Spine  7.06733 1.41497 8.47531
Spine1  4.06128 3.30999 -6.33405
HEad  0.892831 10.0931 -3.47662
LeftShoulder1  2.15202 -2.64651 -28.9325
LeftArm  -3.88005 -16.2161 -26.7093
LeftForeArm  -11.0465 -56.7254 -18.3085
LeftHand  -0.0309538 5.28271 -16.2981
RightShoulder  10.652 24.9076 31.3157
RightArm  -3.70033 22.5309 11.8398
RightForeArm  -33.749 48.7274 14.8111
RightHand  -0.325163 -6.80078 21.3264
LeftUpLeg  -19.3981 5.39502 1.43261
LeftLeg  30.4663 -0.21697 0.202714
LeftFoot  -8.16147 0.299417 -9.01486
LeftToes  5.72949e-011 5.22586e-011 2.45399e-011
409
root  -97.5426 38.9918 39.0337 7.50032 42.4986 4.39188
RightUpLeg  -9.68651 -9.45576 -2.89736
RightLeg  6.48386 -26.0761 3.00495
RightFoot  -2.7189 -0.0961717 1.02983
RightToes  -5.8209e-011 0 -3.6325e-017
Spine  6.88979 1.40426 7.91376
Spine1  4.06987 3.29541 -6.667
HEad  1.10118 9.59194 -3.41822
LeftShoulder1  2.15548 -2.68547 -28.7649
LeftArm  -3.83672 -17.1732 -27.1644
LeftForeArm  -11.4127 -56.5485 -18.2067
LeftHand  -0.06473 5.50843 -16.3213
RightShoulder  10.5558 24.8388 31.0669
RightArm  -3.75887 22.5624 11.6742
RightForeArm  -34.6838 48.3476 14.6614
RightHand  -0.35005 -6.93301 21.264
LeftUpLeg  -19.6143 6.43582 0.259179
LeftLeg  27.0537 0.126534 0.404278
LeftFoot  -8.32442 0.275354 -8.55378
LeftToes  5.72949e-011 5.22586e-011 2.45399e-011
410
root  -97.7022 39.0778 39.3796 8.27126 43.9153 5.04971
RightUpLeg  -9.01852 -9.38757 -2.91305
RightLeg  5.18616 -27.5977 3.60999
RightFoot  -2.70795 -0.0622229 0.580007
RightToes  -5.8209e-011 0 -3.6325e-017
Spine  6.94127 1.40361 7.11432
Spine1  4.09052 3.25391 -6.70037
HEad  1.32397 8.93745 -3.50892
LeftShoulder1  2.1561 -2.71668 -28.5965
LeftArm  -3.51625 -18.1919 -27.7662
LeftForeArm  -11.9031 -56.1318 -17.9431
LeftHand  -0.0968833 5.72801 -16.1484
RightShoulder  10.501 24.9002 30.7888
RightArm  -3.94346 22.4222 11.4593
RightForeArm  -35.3928 47.7858 14.4165
RightHand  -0.376747 -7.054 21.4578
LeftUpLeg  -19.3104 6.73955 -0.778055
LeftLeg  23.2043 0.526953 0.57657
LeftFoot  -8.16836 0.28271 -8.43204
LeftToes  5.72949e-011 5.22586e-011 2.45399e-011
411
root  -97.8169 39.1475 39.6828 8.89571 45.1196 5.66293
RightUpLeg  -8.36819 -9.37376 -2.97165
RightLeg  4.13344 -28.9017 4.1518
RightFoot  -2.8558 -0.0463796 0.348041
RightToes  -5.8209e-011 0 -3.6325e-017
Spine  6.97424 1.3891 6.47949
Spine1  4.24006 3.25018 -6.82516
HEad  1.61902 8.22371 -3.51054
LeftShoulder1  2.1552 -2.75205 -28.3814
LeftArm  -3.19752 -19.1666 -28.2674
LeftForeArm  -12.6347 -55.6182 -17.6367
LeftHand  -0.141479 6.03648 -15.9859
RightShoulder  10.5023 24.9996 30.6603
RightArm  -3.56612 22.4841 11.2786
RightForeArm  -36.4109 46.7938 13.9892
RightHand  -0.402648 -7.14935 21.8779
LeftUpLeg  -18.695 7.14039 -1.75366
LeftLeg  19.2993 -0.349503 0.188987
LeftFoot  -7.75763 0.314797 -8.56757
LeftToes  5.72949e-011 5.22586e-011 2.45399e-011
412
root  -97.8975 39.181 39.9555 9.21652 46.3358 5.8782
RightUpLeg  -7.86054 -9.26575 -2.79382
RightLeg  3.44212 -30.1681 4.57785
RightFoot  -3.05116 -0.0320081 0.11132
RightToes  -5.8209e-011 0 -3.6325e-017
Spine  6.88267 1.36646 6.14361
Spine1  4.46794 3.21045 -6.7684
HEad  2.01149 7.36012 -3.41779
LeftShoulder1  2.18535 -2.85461 -28.2987
LeftArm  -2.31372 -20.146 -28.7457
LeftForeArm  -13.3305 -55.0345 -17.2897
LeftHand  -0.185797 6.36064 -15.6512
RightShoulder  10.5537 25.261 30.4947
RightArm  -3.02119 22.5647 11.1504
RightForeArm  -37.9791 45.106 13.2955
RightHand  -0.39901 -7.08324 22.462
LeftUpLeg  -18.1025 6.93719 -2.28675
LeftLeg  15.9197 -1.88917 -0.363457
LeftFoot  -7.28664 0.358502 -8.88333
LeftToes  5.72949e-011 5.22586e-011 2.45399e-011
413
root  -97.9316 39.184 40.1974 9.36293 47.3615 5.95432
RightUpLeg  -7.47289 -9.24325 -2.60399
RightLeg  3.18775 -31.178 4.84757
RightFoot  -3.43635 -0.0260769 -0.00453319
RightToes  -5.8209e-011 0 -3.6325e-017
Spine  6.85452 1.41923 5.99982
Spine1  4.59612 3.27056 -6.78002
HEad  2.4889 6.33396 -3.1963
LeftShoulder1  2.19999 -2.95483 -27.9847
LeftArm  -0.701294 -21.0445 -29.5284
LeftForeArm  -14.0487 -54.3009 -16.8589
LeftHand  -0.213406 6.57277 -15.4017
RightShoulder  10.6288 25.6005 30.3125
RightArm  -2.13154 22.6002 11.0503
RightForeArm  -39.4391 42.7324 12.37
RightHand  -0.344521 -6.75365 23.4492
LeftUpLeg  -17.3563 5.12315 -2.24413
LeftLeg  12.972 -1.75135 -0.738185
LeftFoot  -6.07671 0.442963 -8.83168
LeftToes  5.72949e-011 5.22586e-011 2.45399e-011
